<svg xmlns="http://www.w3.org/2000/svg" xmlns:xlink="http://www.w3.org/1999/xlink" width="500" zoomAndPan="magnify" viewBox="0 0 375 374.999991" height="500" preserveAspectRatio="xMidYMid meet" version="1.0"><defs><g/><clipPath id="9678aef18c"><path d="M 145.171875 125.425781 L 229.921875 125.425781 L 229.921875 221.425781 L 145.171875 221.425781 Z M 145.171875 125.425781 " clip-rule="nonzero"/></clipPath></defs><g clip-path="url(#9678aef18c)"><path fill="#37d6dc" d="M 203.28125 209.554688 L 191.453125 216.34375 C 191.40625 216.371094 191.367188 216.398438 191.332031 216.433594 C 191.40625 216.75 191.449219 217.078125 191.449219 217.417969 C 191.449219 219.703125 189.59375 221.554688 187.308594 221.554688 C 185.023438 221.554688 183.171875 219.703125 183.171875 217.417969 C 183.171875 217.039062 183.222656 216.667969 183.316406 216.316406 C 183.242188 216.242188 183.15625 216.179688 183.0625 216.128906 C 179.199219 213.871094 175.316406 211.65625 171.414062 209.476562 C 171.402344 209.472656 171.398438 209.46875 171.386719 209.460938 C 170.636719 210.21875 169.597656 210.683594 168.449219 210.683594 C 166.167969 210.683594 164.3125 208.832031 164.3125 206.546875 C 164.3125 206.15625 164.367188 205.777344 164.46875 205.417969 C 164.390625 205.335938 164.300781 205.265625 164.195312 205.210938 C 160.617188 203.234375 157.070312 201.183594 153.554688 199.066406 C 152.976562 198.71875 152.453125 198.53125 151.808594 198.691406 C 151.132812 199.179688 150.300781 199.464844 149.40625 199.464844 C 147.117188 199.464844 145.265625 197.609375 145.265625 195.328125 C 145.265625 193.039062 147.117188 191.1875 149.40625 191.1875 C 151.6875 191.1875 153.542969 193.039062 153.542969 195.328125 C 153.542969 195.675781 153.5 196.011719 153.421875 196.332031 C 153.574219 196.601562 153.804688 196.84375 154.171875 197.050781 C 157.933594 199.1875 161.667969 201.351562 165.386719 203.550781 C 165.429688 203.574219 165.480469 203.597656 165.53125 203.613281 C 166.28125 202.867188 167.3125 202.40625 168.449219 202.40625 C 170.738281 202.40625 172.589844 204.257812 172.589844 206.546875 C 172.589844 206.964844 172.527344 207.363281 172.414062 207.742188 C 172.472656 207.796875 172.535156 207.839844 172.609375 207.882812 L 184.308594 214.503906 C 184.320312 214.511719 184.335938 214.519531 184.347656 214.523438 C 185.101562 213.757812 186.148438 213.277344 187.308594 213.277344 C 188.503906 213.277344 189.578125 213.785156 190.335938 214.59375 C 190.378906 214.578125 190.425781 214.554688 190.46875 214.53125 L 202.296875 207.65625 C 202.363281 207.621094 202.417969 207.578125 202.46875 207.527344 C 202.378906 207.191406 202.332031 206.839844 202.332031 206.472656 C 202.332031 204.1875 204.183594 202.332031 206.46875 202.332031 C 207.601562 202.332031 208.625 202.789062 209.371094 203.519531 C 209.40625 203.507812 209.449219 203.488281 209.484375 203.46875 L 221.386719 196.652344 C 221.40625 196.640625 221.421875 196.632812 221.441406 196.617188 C 221.304688 196.207031 221.230469 195.769531 221.230469 195.3125 C 221.230469 193.386719 222.546875 191.769531 224.324219 191.308594 L 224.539062 177.960938 C 224.539062 177.953125 224.539062 177.945312 224.539062 177.933594 C 224.539062 177.832031 224.527344 177.734375 224.511719 177.640625 C 223.777344 177.421875 223.132812 177.011719 222.628906 176.460938 C 222.5 176.496094 222.371094 176.550781 222.25 176.621094 L 210.644531 183.382812 C 210.535156 183.449219 210.449219 183.535156 210.386719 183.640625 C 210.433594 183.890625 210.457031 184.148438 210.457031 184.414062 C 210.457031 186.699219 208.601562 188.554688 206.320312 188.554688 C 204.03125 188.554688 202.179688 186.699219 202.179688 184.414062 C 202.179688 184.015625 202.234375 183.636719 202.339844 183.273438 C 202.261719 183.214844 202.175781 183.164062 202.089844 183.113281 C 198.527344 181.125 194.996094 179.097656 191.488281 177.019531 C 191.035156 176.753906 190.65625 176.582031 190.308594 176.515625 C 189.570312 177.191406 188.589844 177.605469 187.511719 177.605469 C 185.222656 177.605469 183.371094 175.75 183.371094 173.46875 C 183.371094 173.136719 183.410156 172.816406 183.484375 172.507812 C 183.46875 172.5 183.460938 172.492188 183.445312 172.484375 L 171.476562 165.566406 C 171.453125 165.550781 171.425781 165.539062 171.398438 165.527344 C 170.640625 166.347656 169.554688 166.863281 168.351562 166.863281 C 167.175781 166.863281 166.113281 166.375 165.363281 165.589844 L 153.519531 172.390625 C 153.453125 172.429688 153.394531 172.476562 153.34375 172.523438 C 153.414062 172.828125 153.453125 173.144531 153.453125 173.472656 C 153.453125 175.757812 151.597656 177.609375 149.316406 177.609375 C 147.027344 177.609375 145.175781 175.757812 145.175781 173.472656 C 145.175781 171.542969 146.5 169.917969 148.289062 169.460938 C 148.292969 169.429688 148.296875 169.398438 148.296875 169.367188 L 148.273438 155.734375 C 148.273438 155.65625 148.261719 155.585938 148.238281 155.511719 C 146.523438 155.007812 145.273438 153.417969 145.273438 151.542969 C 145.273438 149.253906 147.125 147.402344 149.410156 147.402344 C 150.523438 147.402344 151.53125 147.84375 152.277344 148.554688 C 152.355469 148.539062 152.429688 148.507812 152.503906 148.464844 L 164.25 141.6875 C 164.3125 141.648438 164.375 141.601562 164.421875 141.554688 C 164.34375 141.230469 164.300781 140.898438 164.300781 140.554688 C 164.300781 138.265625 166.152344 136.414062 168.441406 136.414062 C 169.574219 136.414062 170.601562 136.871094 171.347656 137.613281 C 171.375 137.601562 171.402344 137.585938 171.433594 137.574219 L 183.121094 130.800781 C 183.160156 130.773438 183.199219 130.746094 183.234375 130.722656 C 183.125 130.355469 183.070312 129.964844 183.070312 129.566406 C 183.070312 127.28125 184.925781 125.425781 187.210938 125.425781 C 189.496094 125.425781 191.347656 127.28125 191.347656 129.566406 C 191.347656 129.871094 191.3125 130.175781 191.25 130.460938 C 191.355469 130.601562 191.484375 130.71875 191.636719 130.808594 C 195.21875 132.898438 198.839844 134.972656 202.507812 137.042969 C 203.011719 137.328125 203.496094 137.472656 203.957031 137.476562 C 204.65625 136.929688 205.539062 136.601562 206.5 136.601562 C 208.785156 136.601562 210.636719 138.453125 210.636719 140.742188 C 210.636719 141.019531 210.613281 141.289062 210.558594 141.550781 C 210.792969 141.851562 211.136719 142.050781 211.679688 142.371094 C 215.273438 144.464844 218.875 146.546875 222.480469 148.621094 C 222.519531 148.640625 222.554688 148.65625 222.59375 148.671875 C 223.339844 147.921875 224.378906 147.460938 225.519531 147.460938 C 227.808594 147.460938 229.660156 149.3125 229.660156 151.597656 C 229.660156 153.882812 227.808594 155.738281 225.519531 155.738281 C 223.234375 155.738281 221.378906 153.882812 221.378906 151.597656 C 221.378906 151.199219 221.441406 150.808594 221.546875 150.441406 L 209.714844 143.789062 C 209.621094 143.734375 209.515625 143.699219 209.410156 143.683594 C 208.660156 144.425781 207.632812 144.882812 206.5 144.882812 C 204.210938 144.882812 202.359375 143.027344 202.359375 140.742188 C 202.359375 140.351562 202.414062 139.976562 202.511719 139.625 C 202.449219 139.554688 202.375 139.496094 202.289062 139.449219 L 190.496094 132.59375 C 190.382812 132.53125 190.261719 132.496094 190.140625 132.484375 C 189.390625 133.238281 188.355469 133.703125 187.210938 133.703125 C 186.109375 133.703125 185.105469 133.273438 184.363281 132.570312 C 180.46875 134.84375 176.589844 137.097656 172.722656 139.339844 C 172.621094 139.398438 172.535156 139.46875 172.457031 139.550781 C 172.535156 139.875 172.578125 140.207031 172.578125 140.554688 C 172.578125 142.835938 170.726562 144.691406 168.441406 144.691406 C 167.3125 144.691406 166.289062 144.238281 165.539062 143.507812 C 165.488281 143.523438 165.433594 143.542969 165.382812 143.570312 L 153.496094 150.46875 C 153.46875 150.484375 153.445312 150.5 153.421875 150.519531 C 153.503906 150.84375 153.550781 151.1875 153.550781 151.542969 C 153.550781 153.460938 152.246094 155.074219 150.472656 155.542969 C 150.449219 155.613281 150.441406 155.6875 150.441406 155.773438 L 150.425781 169.347656 C 150.425781 169.398438 150.425781 169.441406 150.433594 169.488281 C 151.175781 169.695312 151.835938 170.105469 152.34375 170.65625 C 152.421875 170.625 152.492188 170.585938 152.5625 170.546875 C 156.289062 168.273438 160.136719 166.039062 164.09375 163.847656 C 164.179688 163.800781 164.253906 163.75 164.324219 163.691406 C 164.25 163.378906 164.214844 163.054688 164.214844 162.722656 C 164.214844 160.4375 166.066406 158.582031 168.351562 158.582031 C 170.636719 158.582031 172.492188 160.4375 172.492188 162.722656 C 172.492188 163.039062 172.457031 163.347656 172.386719 163.644531 C 172.414062 163.667969 172.445312 163.6875 172.480469 163.707031 C 176.332031 165.941406 180.179688 168.164062 184.019531 170.375 C 184.199219 170.480469 184.371094 170.546875 184.539062 170.582031 C 185.292969 169.808594 186.34375 169.328125 187.511719 169.328125 C 189.796875 169.328125 191.648438 171.179688 191.648438 173.46875 C 191.648438 173.929688 191.574219 174.371094 191.433594 174.785156 L 203.3125 181.566406 C 204.066406 180.773438 205.136719 180.277344 206.320312 180.277344 C 207.542969 180.277344 208.640625 180.808594 209.402344 181.648438 C 209.429688 181.640625 209.453125 181.625 209.480469 181.613281 L 221.472656 174.75 C 221.542969 174.714844 221.601562 174.667969 221.65625 174.617188 C 221.582031 174.308594 221.546875 173.996094 221.546875 173.671875 C 221.546875 171.386719 223.402344 169.53125 225.683594 169.53125 C 227.972656 169.53125 229.824219 171.386719 229.824219 173.671875 C 229.824219 175.6875 228.378906 177.371094 226.46875 177.734375 L 226.539062 191.328125 L 226.539062 191.34375 C 228.253906 191.847656 229.507812 193.433594 229.507812 195.3125 C 229.507812 197.601562 227.65625 199.453125 225.367188 199.453125 C 224.320312 199.453125 223.363281 199.0625 222.632812 198.417969 C 222.539062 198.4375 222.449219 198.472656 222.367188 198.519531 L 210.804688 205.265625 C 210.6875 205.335938 210.585938 205.417969 210.496094 205.511719 C 210.570312 205.820312 210.609375 206.144531 210.609375 206.472656 C 210.609375 208.761719 208.753906 210.613281 206.46875 210.613281 C 205.351562 210.613281 204.335938 210.167969 203.589844 209.449219 C 203.488281 209.460938 203.382812 209.5 203.28125 209.554688 Z M 190.566406 154.605469 C 190.417969 154.515625 190.25 154.464844 190.074219 154.457031 C 189.34375 155.113281 188.375 155.511719 187.316406 155.511719 C 185.027344 155.511719 183.175781 153.660156 183.175781 151.375 C 183.175781 149.089844 185.027344 147.234375 187.316406 147.234375 C 189.597656 147.234375 191.453125 149.089844 191.453125 151.375 C 191.453125 151.761719 191.398438 152.136719 191.300781 152.496094 C 191.367188 152.601562 191.460938 152.6875 191.570312 152.753906 C 195.484375 155.019531 199.402344 157.265625 203.328125 159.480469 C 203.347656 159.492188 203.371094 159.507812 203.394531 159.515625 C 204.148438 158.753906 205.191406 158.28125 206.34375 158.28125 C 208.628906 158.28125 210.484375 160.132812 210.484375 162.421875 C 210.484375 164.703125 208.628906 166.558594 206.34375 166.558594 C 204.058594 166.558594 202.207031 164.703125 202.207031 162.421875 C 202.207031 162.050781 202.253906 161.691406 202.347656 161.351562 C 202.25 161.273438 202.140625 161.195312 202.023438 161.132812 C 198.144531 158.980469 194.324219 156.804688 190.566406 154.605469 Z M 172.621094 185.78125 L 184.460938 192.675781 L 184.472656 192.683594 C 185.226562 191.894531 186.289062 191.402344 187.46875 191.402344 C 189.75 191.402344 191.605469 193.253906 191.605469 195.539062 C 191.605469 197.824219 189.75 199.679688 187.46875 199.679688 C 185.179688 199.679688 183.328125 197.824219 183.328125 195.539062 C 183.328125 195.148438 183.382812 194.769531 183.484375 194.40625 C 183.433594 194.359375 183.375 194.3125 183.3125 194.277344 L 171.429688 187.539062 C 171.371094 187.503906 171.308594 187.480469 171.246094 187.464844 C 170.5 188.195312 169.476562 188.644531 168.355469 188.644531 C 166.070312 188.644531 164.21875 186.792969 164.21875 184.507812 C 164.21875 182.21875 166.070312 180.367188 168.355469 180.367188 C 170.640625 180.367188 172.492188 182.21875 172.492188 184.507812 C 172.492188 184.875 172.445312 185.230469 172.355469 185.570312 C 172.429688 185.648438 172.515625 185.714844 172.609375 185.769531 Z M 172.621094 185.78125 " fill-opacity="1" fill-rule="evenodd"/></g><g fill="#ffffff" fill-opacity="1"><g transform="translate(118.797895, 251.779524)"><g><path d="M 10.515625 0.40625 C 8.921875 0.40625 7.34375 0.289062 5.78125 0.0625 C 4.21875 -0.164062 3.050781 -0.414062 2.28125 -0.6875 L 2.28125 -4 C 3.1875 -3.675781 4.398438 -3.390625 5.921875 -3.140625 C 7.441406 -2.890625 8.972656 -2.765625 10.515625 -2.765625 C 12.648438 -2.765625 14.238281 -3.125 15.28125 -3.84375 C 16.320312 -4.5625 16.84375 -5.757812 16.84375 -7.4375 C 16.84375 -8.613281 16.664062 -9.519531 16.3125 -10.15625 C 15.96875 -10.800781 15.351562 -11.328125 14.46875 -11.734375 C 13.59375 -12.148438 12.25 -12.570312 10.4375 -13 C 8.414062 -13.476562 6.863281 -14 5.78125 -14.5625 C 4.695312 -15.125 3.910156 -15.875 3.421875 -16.8125 C 2.929688 -17.757812 2.6875 -19.035156 2.6875 -20.640625 C 2.6875 -23.171875 3.441406 -25.054688 4.953125 -26.296875 C 6.472656 -27.535156 8.796875 -28.15625 11.921875 -28.15625 C 13.222656 -28.15625 14.535156 -28.054688 15.859375 -27.859375 C 17.179688 -27.660156 18.1875 -27.425781 18.875 -27.15625 L 18.875 -23.875 C 18.050781 -24.195312 16.992188 -24.460938 15.703125 -24.671875 C 14.410156 -24.890625 13.160156 -25 11.953125 -25 C 10.566406 -25 9.46875 -24.878906 8.65625 -24.640625 C 7.84375 -24.398438 7.234375 -23.96875 6.828125 -23.34375 C 6.429688 -22.71875 6.234375 -21.816406 6.234375 -20.640625 C 6.234375 -19.734375 6.367188 -19.019531 6.640625 -18.5 C 6.910156 -17.976562 7.4375 -17.53125 8.21875 -17.15625 C 9.007812 -16.78125 10.242188 -16.394531 11.921875 -16 C 14.109375 -15.488281 15.796875 -14.921875 16.984375 -14.296875 C 18.171875 -13.671875 19.03125 -12.832031 19.5625 -11.78125 C 20.09375 -10.726562 20.359375 -9.296875 20.359375 -7.484375 C 20.359375 -2.222656 17.078125 0.40625 10.515625 0.40625 Z M 10.515625 0.40625 "/></g></g></g><g fill="#ffffff" fill-opacity="1"><g transform="translate(141.435646, 251.779524)"><g><path d="M 20.796875 -12.953125 C 20.796875 -12.398438 20.726562 -11.5625 20.59375 -10.4375 L 5.953125 -9.515625 C 5.984375 -7.085938 6.503906 -5.332031 7.515625 -4.25 C 8.535156 -3.175781 10.320312 -2.640625 12.875 -2.640625 C 14.050781 -2.640625 15.265625 -2.769531 16.515625 -3.03125 C 17.773438 -3.300781 18.816406 -3.640625 19.640625 -4.046875 L 19.640625 -0.875 C 18.972656 -0.53125 17.957031 -0.234375 16.59375 0.015625 C 15.238281 0.273438 13.828125 0.40625 12.359375 0.40625 C 10.148438 0.40625 8.3125 0.0546875 6.84375 -0.640625 C 5.375 -1.335938 4.257812 -2.503906 3.5 -4.140625 C 2.738281 -5.773438 2.359375 -7.992188 2.359375 -10.796875 C 2.359375 -14.898438 3.175781 -17.789062 4.8125 -19.46875 C 6.457031 -21.15625 8.90625 -22 12.15625 -22 C 15.46875 -22 17.734375 -21.144531 18.953125 -19.4375 C 20.179688 -17.726562 20.796875 -15.566406 20.796875 -12.953125 Z M 17.40625 -12.921875 C 17.40625 -14.222656 17.285156 -15.3125 17.046875 -16.1875 C 16.804688 -17.070312 16.296875 -17.785156 15.515625 -18.328125 C 14.742188 -18.878906 13.625 -19.15625 12.15625 -19.15625 C 10.5625 -19.15625 9.316406 -18.878906 8.421875 -18.328125 C 7.523438 -17.785156 6.90625 -17.007812 6.5625 -16 C 6.21875 -14.988281 6.015625 -13.679688 5.953125 -12.078125 Z M 17.40625 -12.921875 "/></g></g></g><g fill="#ffffff" fill-opacity="1"><g transform="translate(164.553351, 251.779524)"><g><path d="M 12.359375 0.40625 C 10.148438 0.40625 8.3125 0.0546875 6.84375 -0.640625 C 5.375 -1.335938 4.257812 -2.503906 3.5 -4.140625 C 2.738281 -5.773438 2.359375 -7.992188 2.359375 -10.796875 C 2.359375 -13.597656 2.738281 -15.816406 3.5 -17.453125 C 4.257812 -19.097656 5.375 -20.265625 6.84375 -20.953125 C 8.3125 -21.648438 10.148438 -22 12.359375 -22 C 14.515625 -22 16.394531 -21.734375 18 -21.203125 L 18 -18.046875 C 16.289062 -18.679688 14.425781 -19 12.40625 -19 C 10.769531 -19 9.5 -18.75 8.59375 -18.25 C 7.6875 -17.757812 7.035156 -16.921875 6.640625 -15.734375 C 6.242188 -14.546875 6.046875 -12.890625 6.046875 -10.765625 C 6.046875 -8.648438 6.242188 -7.003906 6.640625 -5.828125 C 7.035156 -4.660156 7.6875 -3.835938 8.59375 -3.359375 C 9.5 -2.878906 10.78125 -2.640625 12.4375 -2.640625 C 14.707031 -2.640625 16.585938 -2.945312 18.078125 -3.5625 L 18.078125 -0.40625 C 17.460938 -0.1875 16.609375 0 15.515625 0.15625 C 14.421875 0.320312 13.367188 0.40625 12.359375 0.40625 Z M 12.359375 0.40625 "/></g></g></g><g fill="#ffffff" fill-opacity="1"><g transform="translate(184.43137, 251.779524)"><g><path d="M 20.875 -21.59375 L 20.875 0 L 17.953125 0 L 17.515625 -3.125 C 16.421875 -0.769531 14.15625 0.40625 10.71875 0.40625 C 8.050781 0.40625 6.175781 -0.195312 5.09375 -1.40625 C 4.019531 -2.625 3.484375 -4.367188 3.484375 -6.640625 L 3.484375 -21.59375 L 6.921875 -21.59375 L 6.921875 -7.921875 C 6.921875 -6.128906 7.207031 -4.800781 7.78125 -3.9375 C 8.351562 -3.070312 9.453125 -2.640625 11.078125 -2.640625 C 12.679688 -2.640625 14 -2.925781 15.03125 -3.5 C 16.070312 -4.070312 16.875 -5.210938 17.4375 -6.921875 L 17.4375 -21.59375 Z M 20.875 -21.59375 "/></g></g></g><g fill="#ffffff" fill-opacity="1"><g transform="translate(208.948939, 251.779524)"><g><path d="M 14.359375 -22 L 14.234375 -18.875 L 13.765625 -18.875 C 12.191406 -18.875 10.820312 -18.519531 9.65625 -17.8125 C 8.5 -17.113281 7.640625 -15.882812 7.078125 -14.125 L 7.078125 0 L 3.640625 0 L 3.640625 -21.59375 L 7.078125 -21.59375 L 7.078125 -17.6875 C 7.691406 -19.3125 8.601562 -20.4375 9.8125 -21.0625 C 11.03125 -21.6875 12.410156 -22 13.953125 -22 Z M 14.359375 -22 "/></g></g></g><g fill="#37d6dc" fill-opacity="1"><g transform="translate(224.114298, 251.779524)"><g><path d="M 3.6875 -27.765625 L 7.28125 -27.765625 L 7.28125 0 L 3.6875 0 Z M 3.6875 -27.765625 "/></g></g></g><g fill="#37d6dc" fill-opacity="1"><g transform="translate(235.073206, 251.779524)"><g><path d="M 20.4375 -24.5625 L 12.359375 -24.5625 L 12.359375 0 L 8.765625 0 L 8.765625 -24.5625 L 0.640625 -24.5625 L 0.640625 -27.765625 L 20.4375 -27.765625 Z M 20.4375 -24.5625 "/></g></g></g></svg>